<?xml version="1.0" encoding="UTF-8"?><svg id="Layer_1" xmlns="http://www.w3.org/2000/svg" viewBox="0 0 664.23 732.2"><defs><style>.cls-1{fill:#004c7f;}.cls-1,.cls-2,.cls-3{opacity:.6;}.cls-4,.cls-2{fill:#0b68a8;}.cls-4,.cls-5{opacity:.9;}.cls-3,.cls-5{fill:#cfe7ff;}</style></defs><path class="cls-2" d="M472.5,481.24s0,0,.01,0h0c43.69-10.24,76.72-29.79,99.11-58.65,22.37-28.85,33.58-66.47,33.58-112.86,0-25.89-4.19-50.16-12.54-72.81-8.37-22.65-20.77-42.6-37.21-59.87-5.36-5.62-11.2-10.86-17.5-15.71-.99-.76-2.06-1.44-3.07-2.18l-155.67-120.1-.06-.04-.27-.21c6.49,4.95,12.49,10.32,17.99,16.08,16.44,17.27,28.85,37.22,37.21,59.87,1,2.71,1.94,5.44,2.82,8.2,0,0-.02,0-.03,0h0c6.48,20.29,9.72,41.82,9.72,64.61,0,4.07-.09,8.05-.25,11.96-.01.29-.03.57-.04.86-.16,3.45-.39,6.82-.68,10.15-.05.55-.08,1.12-.13,1.67-.29,3.15-.67,6.23-1.08,9.28-.22,1.63-.48,3.23-.73,4.83-.22,1.39-.46,2.77-.71,4.15-.33,1.84-.67,3.69-1.05,5.5-.14.64-.3,1.27-.44,1.9-.76,3.44-1.61,6.81-2.54,10.11-.42,1.49-.85,2.97-1.3,4.44-.38,1.23-.77,2.46-1.18,3.67-2.06,6.08-4.4,11.96-7.11,17.61,0,0,.01.02.02.03-4.55,9.6-9.97,18.52-16.32,26.71-22.39,28.86-52.2,50.86-95.89,61.1l23.52,32.42,1.42.94h-.58s164.13,214.18,164.13,214.18l158.58,122.17-191.73-249.98ZM472.48,481.24s0,0,.01,0l.12.16-.14-.16Z"/><polygon class="cls-1" points="0 610.03 158.58 610.03 317.16 732.2 158.58 732.2 0 610.03"/><polygon class="cls-4" points="0 0 158.58 122.17 158.58 732.2 0 610.03 0 0"/><path class="cls-4" d="M419.1,263.8c-.62-.48-1.32-.89-1.96-1.35l-148.22-114.33c11.05,12.25,16.68,28.17,16.68,47.91,0,24.27-8.37,42.88-25.08,55.83-16.73,12.94-40.73,19.42-72.01,19.42h-29.94v1.43l158.58,122.17h29.94c31.27,0,55.28-6.47,72.01-19.42,16.71-12.94,25.08-31.55,25.08-55.83s-8.37-42.88-25.08-55.83Z"/><polygon class="cls-1" points="317.16 611.55 473.8 731.22 664.23 731.22 505.65 609.05 317.16 611.55"/><polygon class="cls-4" points="317.16 497.57 158.58 374.54 317.16 611.55 473.8 731.22 317.16 497.57"/><polygon class="cls-2" points="158.58 610.03 158.58 375.41 317.16 497.57 317.16 732.2 158.58 610.03"/><path class="cls-5" d="M158.61,122.19h246.77c33.98,0,63.64,4.99,88.99,14.97,17.05,6.72,32.08,15.07,45.1,25.07,0,0-158.64-122.22-158.64-122.22l-.06-.04c-13-9.96-27.99-18.29-44.98-24.98C310.43,5.01,280.78.02,246.8.02,246.8.02.03.02.03.02l158.58,122.17Z"/><path class="cls-3" d="M260.38,141.52c-16.72-12.87-40.68-19.31-71.86-19.31h-29.94l158.58,122.17h29.94c30.12,0,53.42,6.07,70.05,18.07l-155.87-120.23-.9-.7Z"/><polygon class="cls-2" points="158.58 122.22 158.58 272.7 317.16 394.87 317.16 394.87 158.58 272.7 158.58 122.22 158.58 122.22 158.58 122.22"/><path class="cls-2" d="M317.16,244.39v117.13c-.1.02-.2.05-.3.08l.3.39v32.89s-158.58-122.17-158.58-122.17V122.22s158.58,122.17,158.58,122.17Z"/></svg>